<svg width="16" height="16" viewBox="0 0 16 16" fill="none" xmlns="http://www.w3.org/2000/svg">
<path fill-rule="evenodd" clip-rule="evenodd" d="M12 0H4C1.8002 0 0 1.7994 0 4V12C0 14.1998 1.8002 16 4 16H12C14.1998 16 16 14.1998 16 12V4C16 1.7994 14.1998 0 12 0ZM8 11.3335C6.1588 11.3335 4.6666 9.8407 4.6666 8.0003C4.6666 6.1591 6.1588 4.6669 8 4.6669C9.8404 4.6669 11.3334 6.1591 11.3334 8.0003C11.3334 9.8407 9.8404 11.3335 8 11.3335ZM11.3334 3.6669C11.3334 4.2191 11.7806 4.6669 12.3334 4.6669C12.8862 4.6669 13.3334 4.2191 13.3334 3.6669C13.3334 3.1147 12.8862 2.6669 12.3334 2.6669C11.7806 2.6669 11.3334 3.1147 11.3334 3.6669Z" fill="black"/>
</svg>
