<svg width="19" height="16" viewBox="0 0 19 16" fill="none" xmlns="http://www.w3.org/2000/svg">
<path d="M18.1423 1.84681C18.0249 1.72131 17.8379 1.6901 17.6863 1.77081C17.5023 1.85501 17.3116 1.92371 17.1163 1.97601C17.406 1.61481 17.6252 1.20231 17.7623 0.760006C17.7997 0.606706 17.7385 0.446205 17.6086 0.356805C17.4786 0.267305 17.3069 0.267505 17.1771 0.357205C16.5714 0.692205 15.9252 0.947605 15.2543 1.11721C14.5336 0.400105 13.5577 -0.00169463 12.5411 5.37257e-06C11.7299 0.0178054 10.94 0.262706 10.2611 0.706806C8.81713 1.52001 8.56633 3.3972 8.67273 4.56C5.99563 4.3342 3.52603 3.02811 1.83273 0.942405C1.76343 0.835905 1.64793 0.768206 1.52113 0.760006C1.39433 0.768606 1.28033 0.839805 1.21713 0.950005C0.434129 2.30581 0.499229 3.9906 1.38433 5.282C1.27033 5.206 1.14873 5.11481 1.02713 5.01601C0.913729 4.90361 0.742229 4.8741 0.597729 4.942C0.453329 5.01 0.366729 5.16101 0.381129 5.32C0.404129 6.7343 1.11263 8.0493 2.28113 8.84641L1.98473 8.76281C1.84373 8.71891 1.69013 8.76071 1.59083 8.86981C1.49143 8.97901 1.46423 9.13581 1.52113 9.27201C2.11753 10.6192 3.28593 11.6287 4.70553 12.0232C3.41133 12.7708 1.91213 13.0851 0.426729 12.92C0.247129 12.8978 0.0768288 13.0053 0.0195288 13.177C-0.0376712 13.3486 0.0341291 13.5368 0.191129 13.6268C1.97813 14.6692 4.01233 15.2125 6.08113 15.2C9.00293 15.1761 11.7726 13.8937 13.6811 11.6812C15.5823 9.64361 16.5821 6.92591 16.4551 4.14201C17.1323 3.62451 17.7158 2.99471 18.1803 2.28001C18.2596 2.14191 18.2445 1.96901 18.1423 1.84681Z" fill="black"/>
</svg>
